<svg id="图层_1" data-name="图层 1" xmlns="http://www.w3.org/2000/svg" viewBox="0 0 60 60"><defs><style>.cls-1{fill:#00e2dc;}.cls-2{fill:#1f8af2;}</style></defs><title>logo</title><rect class="cls-1" x="34.82" y="14.29" width="10.9" height="10.9" rx="0.7" transform="translate(-2.17 34.26) rotate(-45)"/><path class="cls-2" d="M50.9,9.1V0H0V50.9H9.1V60H60V9.1Zm0,41.8H23.19L34.24,39.84v-7l-6.35,6.35L27,42.42l-1.16-1.17L16.25,50.9H12.5L24,39.38l-1.17-1.17L26,37.36l8.23-8.22V25.77H30.66l-8.12,8.12-.86,3.21L20.5,35.92,9.1,47.33V43.58L18.66,34,17.5,32.88,20.62,32l6.26-6.25H20L9.1,36.63V9.13H50.9Z"/></svg>